<mxfile host="Electron" modified="2024-05-01T11:50:52.598Z" agent="Mozilla/5.0 (Windows NT 10.0; Win64; x64) AppleWebKit/537.36 (KHTML, like Gecko) draw.io/24.2.5 Chrome/120.0.6099.109 Electron/28.1.0 Safari/537.36" etag="brpu-f-64P9QxeH9hKgY" version="24.2.5" type="device">
  <diagram id="C5RBs43oDa-KdzZeNtuy" name="Page-1">
    <mxGraphModel dx="1050" dy="629" grid="1" gridSize="10" guides="1" tooltips="1" connect="1" arrows="1" fold="1" page="1" pageScale="1" pageWidth="827" pageHeight="1169" math="0" shadow="0">
      <root>
        <mxCell id="WIyWlLk6GJQsqaUBKTNV-0" />
        <mxCell id="WIyWlLk6GJQsqaUBKTNV-1" parent="WIyWlLk6GJQsqaUBKTNV-0" />
        <mxCell id="IUOXqDqNGWJRMbw2lu2S-0" value="&lt;p style=&quot;margin: 4px 0px 0px; text-align: center; font-size: 13px;&quot;&gt;&lt;b&gt;&lt;font style=&quot;font-size: 13px;&quot;&gt;Bolygó&lt;/font&gt;&lt;/b&gt;&lt;/p&gt;&lt;hr size=&quot;1&quot; style=&quot;border-style: solid; font-size: 13px;&quot;&gt;&amp;nbsp;- napok : int&amp;nbsp;&lt;div&gt;&lt;div style=&quot;height:2px;&quot;&gt;&lt;/div&gt;&lt;hr size=&quot;1&quot; style=&quot;border-style:solid;&quot;&gt;&lt;div style=&quot;height:2px;&quot;&gt;&amp;nbsp;&lt;/div&gt;&lt;div style=&quot;height:2px;&quot;&gt;&amp;nbsp;+ Bolygó(int, Növény[], Sugárzás)&lt;/div&gt;&lt;div style=&quot;height:2px;&quot;&gt;&lt;br&gt;&lt;/div&gt;&lt;div style=&quot;height:2px;&quot;&gt;&lt;br&gt;&lt;/div&gt;&lt;div style=&quot;height:2px;&quot;&gt;&lt;br&gt;&lt;/div&gt;&lt;div style=&quot;height:2px;&quot;&gt;&lt;br&gt;&lt;/div&gt;&lt;div style=&quot;height:2px;&quot;&gt;&lt;br&gt;&lt;/div&gt;&lt;div style=&quot;height:2px;&quot;&gt;&lt;br&gt;&lt;/div&gt;&lt;div style=&quot;height:2px;&quot;&gt;&amp;nbsp;+ hatás()&lt;/div&gt;&lt;/div&gt;&lt;div style=&quot;height:2px;&quot;&gt;&amp;nbsp;&lt;/div&gt;&lt;div style=&quot;height:2px;&quot;&gt;&lt;br&gt;&lt;/div&gt;&lt;div style=&quot;height:2px;&quot;&gt;&lt;br&gt;&lt;/div&gt;&lt;div style=&quot;height:2px;&quot;&gt;&lt;br&gt;&lt;/div&gt;&lt;div style=&quot;height:2px;&quot;&gt;&lt;br&gt;&lt;/div&gt;&lt;div style=&quot;height:2px;&quot;&gt;&lt;br&gt;&lt;/div&gt;&lt;div style=&quot;height:2px;&quot;&gt;&amp;nbsp;+ NapiCiklus()&lt;/div&gt;&lt;div style=&quot;height:2px;&quot;&gt;&lt;br&gt;&lt;/div&gt;&lt;div style=&quot;height:2px;&quot;&gt;&lt;br&gt;&lt;/div&gt;&lt;div style=&quot;height:2px;&quot;&gt;&lt;br&gt;&lt;/div&gt;&lt;div style=&quot;height:2px;&quot;&gt;&lt;br&gt;&lt;/div&gt;&lt;div style=&quot;height:2px;&quot;&gt;&lt;br&gt;&lt;/div&gt;&lt;div style=&quot;height:2px;&quot;&gt;&lt;br&gt;&lt;/div&gt;&lt;div style=&quot;height:2px;&quot;&gt;&amp;nbsp;&lt;/div&gt;&lt;div style=&quot;height:2px;&quot;&gt;&amp;nbsp;+ maiSugárzás() : Sugárzás&lt;br&gt;&lt;/div&gt;&lt;div style=&quot;height:2px;&quot;&gt;&lt;br&gt;&lt;/div&gt;&lt;div style=&quot;height:2px;&quot;&gt;&lt;br&gt;&lt;/div&gt;&lt;div style=&quot;height:2px;&quot;&gt;&lt;br&gt;&lt;/div&gt;&lt;div style=&quot;height:2px;&quot;&gt;&lt;br&gt;&lt;/div&gt;&lt;div style=&quot;height:2px;&quot;&gt;&lt;br&gt;&lt;/div&gt;&lt;div style=&quot;height:2px;&quot;&gt;&lt;br&gt;&lt;/div&gt;&lt;div style=&quot;height:2px;&quot;&gt;&amp;nbsp;+ legéletrevalóbb() : string&lt;/div&gt;&lt;div style=&quot;height:2px;&quot;&gt;&lt;span style=&quot;background-color: initial;&quot;&gt;&lt;br&gt;&lt;/span&gt;&lt;/div&gt;&lt;div style=&quot;height:2px;&quot;&gt;&lt;span style=&quot;background-color: initial;&quot;&gt;&lt;br&gt;&lt;/span&gt;&lt;/div&gt;&lt;div style=&quot;height:2px;&quot;&gt;&lt;span style=&quot;background-color: initial;&quot;&gt;&lt;br&gt;&lt;/span&gt;&lt;/div&gt;&lt;div style=&quot;height:2px;&quot;&gt;&lt;span style=&quot;background-color: initial;&quot;&gt;&lt;br&gt;&lt;/span&gt;&lt;/div&gt;&lt;div style=&quot;height:2px;&quot;&gt;&lt;span style=&quot;background-color: initial;&quot;&gt;&amp;nbsp;&lt;/span&gt;&lt;/div&gt;&lt;div style=&quot;height:2px;&quot;&gt;&lt;span style=&quot;background-color: initial;&quot;&gt;&amp;nbsp;&lt;/span&gt;&lt;/div&gt;&lt;div style=&quot;height:2px;&quot;&gt;&lt;br&gt;&lt;/div&gt;" style="verticalAlign=top;align=left;overflow=fill;html=1;whiteSpace=wrap;fillColor=#bfa8ff;strokeColor=#36393d;strokeWidth=3;" parent="WIyWlLk6GJQsqaUBKTNV-1" vertex="1">
          <mxGeometry x="301.08" y="255" width="188.92" height="145" as="geometry" />
        </mxCell>
        <mxCell id="IUOXqDqNGWJRMbw2lu2S-2" value="&lt;p style=&quot;margin:0px;margin-top:4px;text-align:center;&quot;&gt;&lt;b style=&quot;background-color: initial;&quot;&gt;Sugárzás&lt;/b&gt;&lt;br&gt;&lt;/p&gt;&lt;div&gt;&lt;div style=&quot;height:2px;&quot;&gt;&lt;br&gt;&lt;/div&gt;&lt;/div&gt;" style="verticalAlign=top;align=left;overflow=fill;html=1;whiteSpace=wrap;fillColor=#bdfbff;strokeColor=#0091ff;strokeWidth=3;" parent="WIyWlLk6GJQsqaUBKTNV-1" vertex="1">
          <mxGeometry x="530.08" y="490" width="190" height="30" as="geometry" />
        </mxCell>
        <mxCell id="_8ZKdxSywCEYh7l1Drr5-0" style="edgeStyle=orthogonalEdgeStyle;rounded=0;orthogonalLoop=1;jettySize=auto;html=1;strokeWidth=2;dashed=1;exitX=1.016;exitY=0.169;exitDx=0;exitDy=0;exitPerimeter=0;endArrow=open;endFill=0;" parent="WIyWlLk6GJQsqaUBKTNV-1" edge="1">
          <mxGeometry relative="1" as="geometry">
            <Array as="points">
              <mxPoint x="420" y="503.8" />
              <mxPoint x="420" y="503.8" />
            </Array>
            <mxPoint x="383.96000000000004" y="504.53000000000003" as="sourcePoint" />
            <mxPoint x="530.0799999999999" y="504.50000000000006" as="targetPoint" />
          </mxGeometry>
        </mxCell>
        <mxCell id="IUOXqDqNGWJRMbw2lu2S-3" value="&lt;p style=&quot;margin:0px;margin-top:4px;text-align:center;&quot;&gt;&lt;b&gt;Növény&lt;/b&gt;&lt;br&gt;&lt;/p&gt;&lt;hr size=&quot;1&quot; style=&quot;border-style:solid;&quot;&gt;&lt;font style=&quot;font-size: 12px;&quot;&gt;&amp;nbsp;- név : string&lt;/font&gt;&lt;div style=&quot;&quot;&gt;&lt;font style=&quot;font-size: 12px;&quot;&gt;&lt;font style=&quot;font-size: 12px;&quot;&gt;&amp;nbsp;# tápMennyi : int&lt;/font&gt;&lt;br&gt;&lt;/font&gt;&lt;div style=&quot;height: 2px;&quot;&gt;&lt;font style=&quot;font-size: 12px;&quot;&gt;&lt;br&gt;&lt;/font&gt;&lt;/div&gt;&lt;hr size=&quot;1&quot; style=&quot;border-style: solid;&quot;&gt;&lt;font style=&quot;font-size: 12px;&quot;&gt;&amp;nbsp;+ Növény(s:string, n:int)&lt;/font&gt;&lt;/div&gt;&lt;div style=&quot;&quot;&gt;&lt;font style=&quot;font-size: 12px;&quot;&gt;&amp;nbsp;+ Él() : bool {virtual}&lt;/font&gt;&lt;/div&gt;&lt;div style=&quot;&quot;&gt;&lt;font style=&quot;font-size: 12px;&quot;&gt;&amp;nbsp;+ kölcsönhatás() {virtual}&lt;/font&gt;&lt;/div&gt;&lt;div style=&quot;&quot;&gt;&amp;nbsp;+ getNév() : string&amp;nbsp;&lt;/div&gt;&lt;div style=&quot;&quot;&gt;&amp;nbsp;+ getTápmennyi() : int&lt;/div&gt;&lt;div style=&quot;&quot;&gt;&amp;nbsp;+ Tápmannyi&lt;span style=&quot;background-color: initial;&quot;&gt;Modosító&lt;/span&gt;&lt;span style=&quot;background-color: initial;&quot;&gt;(int n)&lt;/span&gt;&lt;/div&gt;&lt;div style=&quot;&quot;&gt;&lt;br&gt;&lt;div style=&quot;font-size: 11px; height: 2px;&quot;&gt;&lt;/div&gt;&lt;/div&gt;" style="verticalAlign=top;align=left;overflow=fill;html=1;whiteSpace=wrap;fillColor=#d2ff70;strokeColor=#36393d;strokeWidth=3;perimeterSpacing=0;" parent="WIyWlLk6GJQsqaUBKTNV-1" vertex="1">
          <mxGeometry x="201.08" y="470" width="180" height="170" as="geometry" />
        </mxCell>
        <mxCell id="IUOXqDqNGWJRMbw2lu2S-4" value="" style="endArrow=diamondThin;endFill=1;endSize=24;html=1;rounded=0;entryX=0.5;entryY=1;entryDx=0;entryDy=0;strokeWidth=2;" parent="WIyWlLk6GJQsqaUBKTNV-1" source="IUOXqDqNGWJRMbw2lu2S-10" target="IUOXqDqNGWJRMbw2lu2S-0" edge="1">
          <mxGeometry width="160" relative="1" as="geometry">
            <mxPoint x="271.08000000000004" y="495" as="sourcePoint" />
            <mxPoint x="321.08000000000004" y="555" as="targetPoint" />
            <Array as="points">
              <mxPoint x="271" y="470" />
              <mxPoint x="271.08000000000004" y="445" />
              <mxPoint x="331.08000000000004" y="445" />
              <mxPoint x="396.08000000000004" y="445" />
            </Array>
          </mxGeometry>
        </mxCell>
        <mxCell id="IUOXqDqNGWJRMbw2lu2S-8" value="" style="endArrow=diamondThin;endFill=1;endSize=24;html=1;rounded=0;entryX=0.5;entryY=1;entryDx=0;entryDy=0;exitX=0.5;exitY=0;exitDx=0;exitDy=0;strokeWidth=2;" parent="WIyWlLk6GJQsqaUBKTNV-1" source="IUOXqDqNGWJRMbw2lu2S-2" target="IUOXqDqNGWJRMbw2lu2S-0" edge="1">
          <mxGeometry width="160" relative="1" as="geometry">
            <mxPoint x="391.08000000000004" y="525" as="sourcePoint" />
            <mxPoint x="321.08000000000004" y="555" as="targetPoint" />
            <Array as="points">
              <mxPoint x="625.0799999999999" y="445" />
              <mxPoint x="501.08000000000004" y="445" />
              <mxPoint x="396.08000000000004" y="445" />
            </Array>
          </mxGeometry>
        </mxCell>
        <mxCell id="IUOXqDqNGWJRMbw2lu2S-9" value="&lt;b&gt;1&amp;nbsp; &amp;nbsp; &amp;nbsp; - sugárzás&lt;/b&gt;" style="text;html=1;align=center;verticalAlign=middle;whiteSpace=wrap;rounded=0;" parent="WIyWlLk6GJQsqaUBKTNV-1" vertex="1">
          <mxGeometry x="600.0799999999999" y="445" width="110" height="30" as="geometry" />
        </mxCell>
        <mxCell id="IUOXqDqNGWJRMbw2lu2S-10" value="&lt;b&gt;*&amp;nbsp; &amp;nbsp; &amp;nbsp;- növények&lt;/b&gt;" style="text;html=1;align=center;verticalAlign=middle;whiteSpace=wrap;rounded=0;" parent="WIyWlLk6GJQsqaUBKTNV-1" vertex="1">
          <mxGeometry x="241.08" y="445" width="110" height="25" as="geometry" />
        </mxCell>
        <mxCell id="C2zBSRiGSzw0xKoJz0ad-9" style="edgeStyle=orthogonalEdgeStyle;rounded=0;orthogonalLoop=1;jettySize=auto;html=1;entryX=0.5;entryY=1;entryDx=0;entryDy=0;endArrow=block;endFill=1;strokeWidth=2;" parent="WIyWlLk6GJQsqaUBKTNV-1" source="IUOXqDqNGWJRMbw2lu2S-16" target="IUOXqDqNGWJRMbw2lu2S-3" edge="1">
          <mxGeometry relative="1" as="geometry">
            <Array as="points">
              <mxPoint x="193.07999999999998" y="680" />
              <mxPoint x="291.08000000000004" y="680" />
            </Array>
          </mxGeometry>
        </mxCell>
        <mxCell id="IUOXqDqNGWJRMbw2lu2S-16" value="&lt;p style=&quot;text-align: center; margin: 4px 0px 0px;&quot;&gt;&lt;span style=&quot;background-color: initial; text-align: left;&quot;&gt;&lt;b&gt;Puffancs&lt;/b&gt;&lt;/span&gt;&lt;br&gt;&lt;/p&gt;&lt;hr size=&quot;1&quot; style=&quot;border-style:solid;&quot;&gt;&lt;div style=&quot;height:2px;&quot;&gt;&lt;/div&gt;&lt;hr size=&quot;1&quot; style=&quot;border-style:solid;&quot;&gt;&lt;div style=&quot;height: 2px;&quot;&gt;&lt;div style=&quot;height: 2px;&quot;&gt;&amp;nbsp;+ Él() : bool {override}&lt;/div&gt;&lt;div style=&quot;height: 2px;&quot;&gt;&amp;nbsp;&lt;/div&gt;&lt;div style=&quot;height: 2px;&quot;&gt;&amp;nbsp;&lt;/div&gt;&lt;div style=&quot;height: 2px;&quot;&gt;&lt;br&gt;&lt;/div&gt;&lt;div style=&quot;height: 2px;&quot;&gt;&lt;br&gt;&lt;/div&gt;&lt;div style=&quot;height: 2px;&quot;&gt;&amp;nbsp;&lt;/div&gt;&lt;div style=&quot;height: 2px;&quot;&gt;&lt;br&gt;&lt;/div&gt;&lt;div style=&quot;height: 2px;&quot;&gt;&lt;div style=&quot;height: 2px;&quot;&gt;&amp;nbsp;+ Kölcsönhatás(sug : Sugárzás) {override}&lt;/div&gt;&lt;div&gt;&lt;br&gt;&lt;/div&gt;&lt;/div&gt;&lt;div style=&quot;height: 2px;&quot;&gt;&lt;br&gt;&lt;/div&gt;&lt;div style=&quot;height: 2px;&quot;&gt;&lt;br&gt;&lt;/div&gt;&lt;div style=&quot;height: 2px;&quot;&gt;&lt;br&gt;&lt;/div&gt;&lt;div style=&quot;height: 2px;&quot;&gt;&lt;br&gt;&lt;/div&gt;&lt;div style=&quot;height: 2px;&quot;&gt;&lt;br&gt;&lt;/div&gt;&lt;div style=&quot;height: 2px;&quot;&gt;&lt;br&gt;&lt;/div&gt;&lt;/div&gt;" style="verticalAlign=top;align=left;overflow=fill;html=1;whiteSpace=wrap;fillColor=#d5e8d4;strokeColor=#82b366;gradientColor=#97d077;" parent="WIyWlLk6GJQsqaUBKTNV-1" vertex="1">
          <mxGeometry x="58.58" y="700" width="270" height="80" as="geometry" />
        </mxCell>
        <mxCell id="IUOXqDqNGWJRMbw2lu2S-19" style="edgeStyle=orthogonalEdgeStyle;rounded=0;orthogonalLoop=1;jettySize=auto;html=1;exitX=0.5;exitY=1;exitDx=0;exitDy=0;" parent="WIyWlLk6GJQsqaUBKTNV-1" source="IUOXqDqNGWJRMbw2lu2S-16" target="IUOXqDqNGWJRMbw2lu2S-16" edge="1">
          <mxGeometry relative="1" as="geometry" />
        </mxCell>
        <mxCell id="IUOXqDqNGWJRMbw2lu2S-40" value="i := 1&amp;nbsp;&lt;div&gt;while j ≤ napok loop&lt;/div&gt;&lt;div&gt;&lt;span style=&quot;white-space: pre;&quot;&gt;&#x9;&lt;/span&gt;sugárzás := maiSugárzás()&lt;span style=&quot;background-color: initial;&quot;&gt;&amp;nbsp;&lt;/span&gt;&lt;/div&gt;&lt;div&gt;&lt;span style=&quot;white-space: pre;&quot;&gt;&#x9;&lt;/span&gt;NapiCiklus()&lt;br&gt;&lt;/div&gt;&lt;div&gt;&lt;span style=&quot;white-space: pre;&quot;&gt;&#x9;&lt;/span&gt;i := i + 1&lt;br&gt;&lt;/div&gt;&lt;div&gt;&lt;span style=&quot;background-color: initial;&quot;&gt;endloop&lt;/span&gt;&lt;br&gt;&lt;/div&gt;&lt;div&gt;legéletrevalóbb()&lt;/div&gt;" style="shape=note;whiteSpace=wrap;html=1;backgroundOutline=1;darkOpacity=0.05;fillColor=#e8c987;strokeColor=#000000;size=14;align=left;fillStyle=auto;gradientColor=#e8ebbc;" parent="WIyWlLk6GJQsqaUBKTNV-1" vertex="1">
          <mxGeometry x="525.62" y="240" width="198.92" height="115" as="geometry" />
        </mxCell>
        <mxCell id="IUOXqDqNGWJRMbw2lu2S-43" value="&lt;div&gt;i := 1&amp;nbsp;&lt;span style=&quot;background-color: initial;&quot;&gt;&amp;nbsp;&lt;/span&gt;&lt;/div&gt;&lt;div&gt;&lt;div&gt;while i≤|növények| loop&lt;/div&gt;&lt;div&gt;&lt;span style=&quot;white-space: pre;&quot;&gt;&#x9;&lt;/span&gt;if növények[i].Él() then&lt;/div&gt;&lt;div&gt;&lt;span style=&quot;white-space: pre;&quot;&gt;&#x9;&lt;span style=&quot;white-space: pre;&quot;&gt;&#x9;&lt;/span&gt;&lt;/span&gt;növények[i].Kölcsönhatás(sugárzás)&lt;/div&gt;&lt;div&gt;&lt;span style=&quot;background-color: initial; white-space: pre;&quot;&gt;&#x9;&lt;/span&gt;&lt;span style=&quot;background-color: initial;&quot;&gt;endif&lt;/span&gt;&lt;br&gt;&lt;/div&gt;&lt;div&gt;&lt;span style=&quot;white-space: pre;&quot;&gt;&#x9;&lt;/span&gt;i := i + 1&lt;/div&gt;&lt;div&gt;endloop&lt;/div&gt;&lt;/div&gt;" style="shape=note;whiteSpace=wrap;html=1;backgroundOutline=1;darkOpacity=0.05;fillColor=#e8c987;strokeColor=#000000;size=14;align=left;fillStyle=auto;gradientColor=#e8ebbc;" parent="WIyWlLk6GJQsqaUBKTNV-1" vertex="1">
          <mxGeometry x="20.54" y="190" width="261.09" height="112.5" as="geometry" />
        </mxCell>
        <mxCell id="IUOXqDqNGWJRMbw2lu2S-45" value="" style="endArrow=oval;html=1;rounded=0;endFill=1;dashed=1;dashPattern=1 2;exitX=0.962;exitY=0.996;exitDx=0;exitDy=0;exitPerimeter=0;entryX=-0.005;entryY=0.685;entryDx=0;entryDy=0;entryPerimeter=0;" parent="WIyWlLk6GJQsqaUBKTNV-1" source="IUOXqDqNGWJRMbw2lu2S-43" target="IUOXqDqNGWJRMbw2lu2S-0" edge="1">
          <mxGeometry width="50" height="50" relative="1" as="geometry">
            <mxPoint x="267.17" y="302" as="sourcePoint" />
            <mxPoint x="300" y="350" as="targetPoint" />
            <Array as="points">
              <mxPoint x="272.17" y="330" />
            </Array>
          </mxGeometry>
        </mxCell>
        <mxCell id="IUOXqDqNGWJRMbw2lu2S-52" value="&lt;div style=&quot;font-size: 11px;&quot;&gt;&lt;font style=&quot;font-size: 11px;&quot;&gt;a :=&amp;nbsp;&lt;span style=&quot;background-color: initial;&quot;&gt;sugárzás.getAlfaIgény()&lt;/span&gt;&lt;/font&gt;&lt;/div&gt;&lt;div style=&quot;font-size: 11px;&quot;&gt;&lt;font style=&quot;font-size: 11px;&quot;&gt;d := sugárzás.getDeltaIgény()&lt;/font&gt;&lt;/div&gt;&lt;div style=&quot;font-size: 11px;&quot;&gt;&lt;font style=&quot;font-size: 11px;&quot;&gt;if a&lt;span style=&quot;background-color: initial;&quot;&gt;&amp;nbsp;- d&lt;/span&gt;&lt;span style=&quot;background-color: initial;&quot;&gt;&amp;nbsp;≥ 3&amp;nbsp;&lt;/span&gt;&lt;span style=&quot;background-color: initial;&quot;&gt;then&amp;nbsp;&lt;/span&gt;&lt;/font&gt;&lt;/div&gt;&lt;div style=&quot;font-size: 11px;&quot;&gt;&lt;font style=&quot;font-size: 11px;&quot;&gt;&lt;span style=&quot;background-color: initial;&quot;&gt;&lt;span style=&quot;white-space: pre;&quot;&gt;&#x9;&lt;/span&gt;return new AlfaSugárzás(&lt;/span&gt;&lt;span style=&quot;background-color: initial;&quot;&gt;a , d&lt;/span&gt;&lt;span style=&quot;background-color: initial;&quot;&gt;)&lt;/span&gt;&lt;/font&gt;&lt;/div&gt;&lt;div style=&quot;font-size: 11px;&quot;&gt;&lt;font style=&quot;font-size: 11px;&quot;&gt;else if d&amp;nbsp;&lt;span style=&quot;background-color: initial;&quot;&gt;- a&amp;nbsp;&lt;/span&gt;&lt;span style=&quot;background-color: initial;&quot;&gt;≥ 3&amp;nbsp;&lt;/span&gt;&lt;/font&gt;&lt;/div&gt;&lt;div style=&quot;font-size: 11px;&quot;&gt;&lt;font style=&quot;font-size: 11px;&quot;&gt;&lt;span style=&quot;white-space: pre;&quot;&gt;&#x9;&lt;/span&gt;then&amp;nbsp;&lt;span style=&quot;background-color: initial;&quot;&gt;return new DeltaSugárzás(&lt;/span&gt;&lt;span style=&quot;background-color: initial;&quot;&gt;a , d&lt;/span&gt;&lt;span style=&quot;background-color: initial;&quot;&gt;)&lt;/span&gt;&lt;/font&gt;&lt;/div&gt;&lt;div style=&quot;font-size: 11px;&quot;&gt;&lt;font style=&quot;font-size: 11px;&quot;&gt;else&lt;/font&gt;&lt;/div&gt;&lt;div style=&quot;font-size: 11px;&quot;&gt;&lt;font style=&quot;font-size: 11px;&quot;&gt;&lt;span style=&quot;white-space: pre;&quot;&gt;&#x9;&lt;/span&gt;then&amp;nbsp;&lt;span style=&quot;background-color: initial;&quot;&gt;return new NincsSugárzás(&lt;/span&gt;&lt;span style=&quot;background-color: initial;&quot;&gt;a , d&lt;/span&gt;&lt;span style=&quot;background-color: initial;&quot;&gt;)&lt;/span&gt;&lt;/font&gt;&lt;/div&gt;&lt;div style=&quot;font-size: 11px;&quot;&gt;&lt;font style=&quot;font-size: 11px;&quot;&gt;endif&lt;/font&gt;&lt;/div&gt;" style="shape=note;whiteSpace=wrap;html=1;backgroundOutline=1;darkOpacity=0.05;fillColor=#e8c987;strokeColor=#000000;size=14;align=left;fillStyle=auto;gradientColor=#e8ebbc;" parent="WIyWlLk6GJQsqaUBKTNV-1" vertex="1">
          <mxGeometry x="41.089999999999996" y="305" width="220" height="140" as="geometry" />
        </mxCell>
        <mxCell id="IUOXqDqNGWJRMbw2lu2S-53" style="rounded=0;orthogonalLoop=1;jettySize=auto;html=1;entryX=-0.007;entryY=0.805;entryDx=0;entryDy=0;edgeStyle=orthogonalEdgeStyle;endArrow=oval;endFill=1;dashed=1;dashPattern=1 2;entryPerimeter=0;" parent="WIyWlLk6GJQsqaUBKTNV-1" target="IUOXqDqNGWJRMbw2lu2S-0" edge="1">
          <mxGeometry relative="1" as="geometry">
            <mxPoint x="301.76" y="366.22" as="targetPoint" />
            <Array as="points">
              <mxPoint x="261" y="370" />
              <mxPoint x="290" y="370" />
              <mxPoint x="290" y="372" />
            </Array>
            <mxPoint x="261.0800000000001" y="363.78" as="sourcePoint" />
          </mxGeometry>
        </mxCell>
        <mxCell id="IUOXqDqNGWJRMbw2lu2S-58" value="&lt;p style=&quot;text-align: center; margin: 4px 0px 0px;&quot;&gt;&lt;span style=&quot;background-color: initial; text-align: left;&quot;&gt;&lt;b&gt;DeltaSugárzás&lt;/b&gt;&lt;/span&gt;&lt;br&gt;&lt;/p&gt;" style="verticalAlign=top;align=left;overflow=fill;html=1;whiteSpace=wrap;fillColor=#eeeeee;strokeColor=#006eff;" parent="WIyWlLk6GJQsqaUBKTNV-1" vertex="1">
          <mxGeometry x="570.0799999999999" y="615" width="90" height="25" as="geometry" />
        </mxCell>
        <mxCell id="C2zBSRiGSzw0xKoJz0ad-6" style="edgeStyle=orthogonalEdgeStyle;rounded=0;orthogonalLoop=1;jettySize=auto;html=1;endArrow=none;endFill=0;strokeWidth=2;" parent="WIyWlLk6GJQsqaUBKTNV-1" source="IUOXqDqNGWJRMbw2lu2S-59" edge="1">
          <mxGeometry relative="1" as="geometry">
            <mxPoint x="510.08" y="580" as="targetPoint" />
            <Array as="points">
              <mxPoint x="730.0799999999999" y="580" />
            </Array>
          </mxGeometry>
        </mxCell>
        <mxCell id="IUOXqDqNGWJRMbw2lu2S-59" value="&lt;p style=&quot;text-align: center; margin: 4px 0px 0px;&quot;&gt;&lt;span style=&quot;background-color: initial; text-align: left;&quot;&gt;&lt;b&gt;NincsSugárzás&lt;/b&gt;&lt;/span&gt;&lt;br&gt;&lt;/p&gt;" style="verticalAlign=top;align=left;overflow=fill;html=1;whiteSpace=wrap;fillColor=#eeeeee;strokeColor=#006eff;" parent="WIyWlLk6GJQsqaUBKTNV-1" vertex="1">
          <mxGeometry x="680.0799999999999" y="615" width="90" height="25" as="geometry" />
        </mxCell>
        <mxCell id="IUOXqDqNGWJRMbw2lu2S-82" value="&lt;font style=&quot;font-size: 10px;&quot;&gt;&lt;b&gt;return&lt;/b&gt;&lt;b&gt;&amp;nbsp;&lt;/b&gt;&lt;span style=&quot;font-size: 12px;&quot;&gt;tápMennyi&amp;nbsp;&lt;/span&gt;&amp;gt; 0&lt;/font&gt;" style="shape=note;whiteSpace=wrap;html=1;backgroundOutline=1;darkOpacity=0.05;fillColor=#e8c987;strokeColor=#000000;size=14;align=left;fillStyle=auto;gradientColor=#e8ebbc;" parent="WIyWlLk6GJQsqaUBKTNV-1" vertex="1">
          <mxGeometry x="570.0799999999999" y="800" width="115" height="40" as="geometry" />
        </mxCell>
        <mxCell id="llq4M6hsSdFKrIHtVXSO-1" value="&lt;div&gt;&lt;div style=&quot;line-height: 140%;&quot;&gt;sug.változik(this)&lt;span style=&quot;background-color: initial; white-space: pre;&quot;&gt;&#x9;&lt;/span&gt;&lt;/div&gt;&lt;/div&gt;" style="shape=note;whiteSpace=wrap;html=1;backgroundOutline=1;darkOpacity=0.05;fillColor=#e8c987;strokeColor=#000000;size=14;align=left;fillStyle=auto;gradientColor=#e8ebbc;" parent="WIyWlLk6GJQsqaUBKTNV-1" vertex="1">
          <mxGeometry x="585.0799999999999" y="850" width="185" height="30" as="geometry" />
        </mxCell>
        <mxCell id="llq4M6hsSdFKrIHtVXSO-6" value="sug.változik(this)" style="shape=note;whiteSpace=wrap;html=1;backgroundOutline=1;darkOpacity=0.05;fillColor=#e8c987;strokeColor=#000000;size=14;align=left;fillStyle=auto;gradientColor=#e8ebbc;" parent="WIyWlLk6GJQsqaUBKTNV-1" vertex="1">
          <mxGeometry x="270.08000000000004" y="950" width="185" height="30" as="geometry" />
        </mxCell>
        <mxCell id="C2zBSRiGSzw0xKoJz0ad-10" style="edgeStyle=orthogonalEdgeStyle;rounded=0;orthogonalLoop=1;jettySize=auto;html=1;endArrow=none;endFill=0;endSize=7;strokeWidth=2;" parent="WIyWlLk6GJQsqaUBKTNV-1" source="IUOXqDqNGWJRMbw2lu2S-17" edge="1">
          <mxGeometry relative="1" as="geometry">
            <mxPoint x="290.08000000000004" y="680" as="targetPoint" />
            <Array as="points">
              <mxPoint x="423.08000000000004" y="680" />
            </Array>
          </mxGeometry>
        </mxCell>
        <mxCell id="IUOXqDqNGWJRMbw2lu2S-17" value="&lt;p style=&quot;margin:0px;margin-top:4px;text-align:center;&quot;&gt;&lt;b&gt;Deltafa&lt;/b&gt;&lt;br&gt;&lt;/p&gt;&lt;hr size=&quot;1&quot; style=&quot;border-style:solid;&quot;&gt;&lt;div style=&quot;height:2px;&quot;&gt;&lt;/div&gt;&lt;hr size=&quot;1&quot; style=&quot;border-style:solid;&quot;&gt;&lt;div style=&quot;height: 2px;&quot;&gt;&lt;div style=&quot;height: 2px;&quot;&gt;&amp;nbsp;+ Él() : bool {override}&lt;/div&gt;&lt;div style=&quot;height: 2px;&quot;&gt;&amp;nbsp;&lt;/div&gt;&lt;div style=&quot;height: 2px;&quot;&gt;&amp;nbsp;&lt;/div&gt;&lt;div style=&quot;height: 2px;&quot;&gt;&lt;br&gt;&lt;/div&gt;&lt;div style=&quot;height: 2px;&quot;&gt;&lt;br&gt;&lt;/div&gt;&lt;div style=&quot;height: 2px;&quot;&gt;&amp;nbsp;&lt;/div&gt;&lt;div style=&quot;height: 2px;&quot;&gt;&lt;br&gt;&lt;/div&gt;&lt;div style=&quot;height: 2px;&quot;&gt;&lt;div style=&quot;height: 2px;&quot;&gt;&amp;nbsp;+ Kölcsönhatás(sug : Sugárzás) {override}&lt;/div&gt;&lt;div&gt;&lt;br&gt;&lt;/div&gt;&lt;/div&gt;&lt;div style=&quot;height: 2px;&quot;&gt;&lt;br&gt;&lt;/div&gt;&lt;div style=&quot;height: 2px;&quot;&gt;&lt;br&gt;&lt;/div&gt;&lt;div style=&quot;height: 2px;&quot;&gt;&lt;br&gt;&lt;/div&gt;&lt;div style=&quot;height: 2px;&quot;&gt;&amp;nbsp;&lt;/div&gt;&lt;div style=&quot;height: 2px;&quot;&gt;&lt;span style=&quot;background-color: initial;&quot;&gt;&amp;nbsp;&lt;/span&gt;&lt;/div&gt;&lt;div style=&quot;height: 2px;&quot;&gt;&lt;br&gt;&lt;/div&gt;&lt;/div&gt;" style="verticalAlign=top;align=left;overflow=fill;html=1;whiteSpace=wrap;fillColor=#d5e8d4;strokeColor=#82b366;gradientColor=#97d077;" parent="WIyWlLk6GJQsqaUBKTNV-1" vertex="1">
          <mxGeometry x="288.08000000000004" y="810" width="270" height="90" as="geometry" />
        </mxCell>
        <mxCell id="llq4M6hsSdFKrIHtVXSO-14" value="&lt;font style=&quot;font-size: 10px;&quot;&gt;&lt;b&gt;return&lt;/b&gt;&lt;b&gt;&amp;nbsp;&lt;/b&gt;&lt;span style=&quot;font-size: 12px;&quot;&gt;tápMennyi&amp;nbsp;&lt;/span&gt;&amp;gt; 0&lt;/font&gt;" style="shape=note;whiteSpace=wrap;html=1;backgroundOutline=1;darkOpacity=0.05;fillColor=#e8c987;strokeColor=#000000;size=14;align=left;fillStyle=auto;gradientColor=#e8ebbc;" parent="WIyWlLk6GJQsqaUBKTNV-1" vertex="1">
          <mxGeometry x="288.08000000000004" y="910" width="120" height="30" as="geometry" />
        </mxCell>
        <mxCell id="llq4M6hsSdFKrIHtVXSO-22" style="edgeStyle=orthogonalEdgeStyle;rounded=0;orthogonalLoop=1;jettySize=auto;html=1;endArrow=oval;endFill=1;dashed=1;dashPattern=1 2;exitX=0;exitY=0.845;exitDx=0;exitDy=0;exitPerimeter=0;" parent="WIyWlLk6GJQsqaUBKTNV-1" source="llq4M6hsSdFKrIHtVXSO-21" edge="1">
          <mxGeometry relative="1" as="geometry">
            <mxPoint x="450" y="390" as="targetPoint" />
            <Array as="points">
              <mxPoint x="482" y="377" />
              <mxPoint x="482" y="390" />
            </Array>
            <mxPoint x="500.0799999999999" y="390" as="sourcePoint" />
          </mxGeometry>
        </mxCell>
        <mxCell id="llq4M6hsSdFKrIHtVXSO-21" value="&lt;div&gt;ind := &lt;b&gt;&lt;font style=&quot;font-size: 13px;&quot;&gt;MAX&amp;nbsp;&lt;/font&gt;&lt;/b&gt;&lt;sub&gt;e in növények &lt;/sub&gt;e.getTápmennyi()&lt;/div&gt;&lt;div&gt;&lt;span style=&quot;background-color: initial; font-size: 10px; white-space: pre;&quot;&gt;&#x9;&lt;/span&gt;&lt;span style=&quot;background-color: initial;&quot;&gt;&lt;span style=&quot;font-size: 10px;&quot;&gt;&amp;nbsp; &amp;nbsp; &amp;nbsp;&lt;/span&gt;&lt;sup style=&quot;&quot;&gt;&lt;font style=&quot;font-size: 10px;&quot;&gt;e.Él()&lt;/font&gt;&lt;/sup&gt;&lt;/span&gt;&lt;/div&gt;&lt;div style=&quot;font-size: 10px;&quot;&gt;&lt;div&gt;&lt;span style=&quot;background-color: initial;&quot;&gt;return növények[ind].getNév()&lt;/span&gt;&lt;/div&gt;&lt;/div&gt;" style="shape=note;whiteSpace=wrap;html=1;backgroundOutline=1;darkOpacity=0.05;fillColor=#e8c987;strokeColor=#000000;size=14;align=left;fillStyle=auto;gradientColor=#e8ebbc;" parent="WIyWlLk6GJQsqaUBKTNV-1" vertex="1">
          <mxGeometry x="520.08" y="380" width="270" height="50" as="geometry" />
        </mxCell>
        <mxCell id="lytWnD0UrwX1Dr-QNOHe-1" value="&lt;font style=&quot;font-size: 12px;&quot;&gt;&lt;b&gt;return (&lt;/b&gt;&lt;span style=&quot;font-size: 12px;&quot;&gt;tápMennyi&amp;nbsp;&lt;/span&gt;&amp;lt; 10 &lt;b&gt;and&amp;nbsp; &amp;nbsp;&lt;span style=&quot;white-space: pre;&quot;&gt;&#x9;&lt;/span&gt;&amp;nbsp; &amp;nbsp;&amp;nbsp;&lt;/b&gt;&lt;span style=&quot;font-size: 12px;&quot;&gt;tápMennyi&amp;nbsp;&lt;/span&gt;&amp;gt; 0&lt;b&gt;)&lt;/b&gt;&lt;/font&gt;" style="shape=note;whiteSpace=wrap;html=1;backgroundOutline=1;darkOpacity=0.05;fillColor=#e8c987;strokeColor=#000000;size=14;align=left;fillStyle=auto;gradientColor=#e8ebbc;" parent="WIyWlLk6GJQsqaUBKTNV-1" vertex="1">
          <mxGeometry x="56.08" y="790" width="185" height="41" as="geometry" />
        </mxCell>
        <mxCell id="lytWnD0UrwX1Dr-QNOHe-4" value="&lt;font style=&quot;font-size: 10px;&quot;&gt;&lt;b&gt;return&lt;/b&gt;&lt;b&gt;&amp;nbsp;&lt;/b&gt;&lt;span style=&quot;font-size: 12px;&quot;&gt;név&lt;/span&gt;&lt;/font&gt;" style="shape=note;whiteSpace=wrap;html=1;backgroundOutline=1;darkOpacity=0.05;fillColor=#e8c987;strokeColor=#000000;size=14;align=left;fillStyle=auto;gradientColor=#e8ebbc;" parent="WIyWlLk6GJQsqaUBKTNV-1" vertex="1">
          <mxGeometry x="41.08" y="570" width="110" height="30" as="geometry" />
        </mxCell>
        <mxCell id="lytWnD0UrwX1Dr-QNOHe-5" style="edgeStyle=orthogonalEdgeStyle;rounded=0;orthogonalLoop=1;jettySize=auto;html=1;entryX=0;entryY=0.75;entryDx=0;entryDy=0;endArrow=oval;endFill=1;dashed=1;dashPattern=1 2;" parent="WIyWlLk6GJQsqaUBKTNV-1" source="lytWnD0UrwX1Dr-QNOHe-4" target="IUOXqDqNGWJRMbw2lu2S-3" edge="1">
          <mxGeometry relative="1" as="geometry" />
        </mxCell>
        <mxCell id="lytWnD0UrwX1Dr-QNOHe-12" value="sug.változik(this)" style="shape=note;whiteSpace=wrap;html=1;backgroundOutline=1;darkOpacity=0.05;fillColor=#e8c987;strokeColor=#000000;size=14;align=left;fillStyle=auto;gradientColor=#e8ebbc;" parent="WIyWlLk6GJQsqaUBKTNV-1" vertex="1">
          <mxGeometry x="41.08" y="850" width="185" height="30" as="geometry" />
        </mxCell>
        <mxCell id="C2zBSRiGSzw0xKoJz0ad-7" style="edgeStyle=orthogonalEdgeStyle;rounded=0;orthogonalLoop=1;jettySize=auto;html=1;endArrow=none;endFill=0;strokeWidth=2;" parent="WIyWlLk6GJQsqaUBKTNV-1" edge="1">
          <mxGeometry relative="1" as="geometry">
            <mxPoint x="510.08" y="580" as="targetPoint" />
            <mxPoint x="510.08" y="615" as="sourcePoint" />
          </mxGeometry>
        </mxCell>
        <mxCell id="IUOXqDqNGWJRMbw2lu2S-57" value="&lt;p style=&quot;margin: 4px 0px 0px; text-align: center;&quot;&gt;&lt;span style=&quot;background-color: initial; text-align: left;&quot;&gt;&lt;b&gt;AlfaSugárzás&lt;/b&gt;&lt;/span&gt;&lt;br&gt;&lt;/p&gt;&lt;div style=&quot;height: 2px;&quot;&gt;&lt;div style=&quot;height: 2px;&quot;&gt;&lt;span style=&quot;background-color: initial;&quot;&gt;)&lt;/span&gt;&lt;/div&gt;&lt;div&gt;&lt;span style=&quot;background-color: initial;&quot;&gt;&lt;br&gt;&lt;/span&gt;&lt;/div&gt;&lt;div style=&quot;height: 2px;&quot;&gt;&lt;br&gt;&lt;/div&gt;&lt;div style=&quot;height: 2px;&quot;&gt;&amp;nbsp;&lt;/div&gt;&lt;/div&gt;" style="verticalAlign=top;align=left;overflow=fill;html=1;whiteSpace=wrap;fillColor=#eeeeee;strokeColor=#006eff;" parent="WIyWlLk6GJQsqaUBKTNV-1" vertex="1">
          <mxGeometry x="470.08000000000004" y="615" width="90" height="25" as="geometry" />
        </mxCell>
        <mxCell id="C2zBSRiGSzw0xKoJz0ad-4" style="edgeStyle=orthogonalEdgeStyle;rounded=0;orthogonalLoop=1;jettySize=auto;html=1;entryX=0.456;entryY=1.015;entryDx=0;entryDy=0;entryPerimeter=0;endArrow=block;endFill=1;strokeWidth=2;" parent="WIyWlLk6GJQsqaUBKTNV-1" source="IUOXqDqNGWJRMbw2lu2S-58" target="IUOXqDqNGWJRMbw2lu2S-2" edge="1">
          <mxGeometry relative="1" as="geometry">
            <Array as="points">
              <mxPoint x="617.0799999999999" y="567" />
              <mxPoint x="617.0799999999999" y="567" />
            </Array>
          </mxGeometry>
        </mxCell>
        <mxCell id="C2zBSRiGSzw0xKoJz0ad-11" style="edgeStyle=orthogonalEdgeStyle;rounded=0;orthogonalLoop=1;jettySize=auto;html=1;endArrow=none;endFill=0;strokeWidth=2;" parent="WIyWlLk6GJQsqaUBKTNV-1" source="IUOXqDqNGWJRMbw2lu2S-18" edge="1">
          <mxGeometry relative="1" as="geometry">
            <mxPoint x="420.08000000000004" y="680" as="targetPoint" />
            <Array as="points">
              <mxPoint x="655.0799999999999" y="680" />
            </Array>
          </mxGeometry>
        </mxCell>
        <mxCell id="IUOXqDqNGWJRMbw2lu2S-18" value="&lt;p style=&quot;margin:0px;margin-top:4px;text-align:center;&quot;&gt;&lt;b&gt;Parabokor&lt;/b&gt;&lt;/p&gt;&lt;hr size=&quot;1&quot; style=&quot;border-style:solid;&quot;&gt;&lt;div style=&quot;height:2px;&quot;&gt;&lt;/div&gt;&lt;hr size=&quot;1&quot; style=&quot;border-style:solid;&quot;&gt;&lt;div style=&quot;height: 2px;&quot;&gt;&lt;font style=&quot;font-size: 12px;&quot;&gt;&amp;nbsp;+ Él() : bool {override}&lt;/font&gt;&lt;/div&gt;&lt;div style=&quot;height: 2px;&quot;&gt;&lt;font style=&quot;font-size: 12px;&quot;&gt;&amp;nbsp;&lt;/font&gt;&lt;/div&gt;&lt;div style=&quot;height: 2px;&quot;&gt;&lt;font style=&quot;font-size: 12px;&quot;&gt;&amp;nbsp;&lt;/font&gt;&lt;/div&gt;&lt;div style=&quot;height: 2px;&quot;&gt;&lt;font style=&quot;font-size: 12px;&quot;&gt;&lt;br&gt;&lt;/font&gt;&lt;/div&gt;&lt;div style=&quot;height: 2px;&quot;&gt;&lt;font style=&quot;font-size: 12px;&quot;&gt;&lt;br&gt;&lt;/font&gt;&lt;/div&gt;&lt;div style=&quot;height: 2px;&quot;&gt;&lt;font style=&quot;font-size: 12px;&quot;&gt;&amp;nbsp;&lt;/font&gt;&lt;/div&gt;&lt;div style=&quot;height: 2px;&quot;&gt;&lt;font style=&quot;font-size: 12px;&quot;&gt;&lt;br&gt;&lt;/font&gt;&lt;/div&gt;&lt;div style=&quot;height: 2px;&quot;&gt;&lt;font style=&quot;font-size: 12px;&quot;&gt;&amp;nbsp;+ Kölcsönhatás(sug : Sugárzás) {override}&lt;/font&gt;&lt;/div&gt;&lt;div style=&quot;height: 2px;&quot;&gt;&lt;font style=&quot;font-size: 12px;&quot;&gt;&lt;br&gt;&lt;/font&gt;&lt;/div&gt;&lt;div style=&quot;height: 2px;&quot;&gt;&lt;font style=&quot;font-size: 12px;&quot;&gt;&lt;br&gt;&lt;/font&gt;&lt;/div&gt;&lt;div style=&quot;height: 2px;&quot;&gt;&lt;font style=&quot;font-size: 12px;&quot;&gt;&lt;br&gt;&lt;/font&gt;&lt;/div&gt;&lt;div style=&quot;height: 2px;&quot;&gt;&lt;font style=&quot;font-size: 12px;&quot;&gt;&lt;br&gt;&lt;/font&gt;&lt;/div&gt;&lt;div style=&quot;height: 2px;&quot;&gt;&lt;font style=&quot;font-size: 12px;&quot;&gt;&lt;br&gt;&lt;/font&gt;&lt;/div&gt;&lt;div style=&quot;height: 2px;&quot;&gt;&lt;font style=&quot;font-size: 12px;&quot;&gt;&lt;br&gt;&lt;/font&gt;&lt;/div&gt;&lt;div style=&quot;height: 2px;&quot;&gt;&lt;br&gt;&lt;/div&gt;" style="verticalAlign=top;align=left;overflow=fill;html=1;whiteSpace=wrap;fillColor=#d5e8d4;strokeColor=#82b366;gradientColor=#97d077;" parent="WIyWlLk6GJQsqaUBKTNV-1" vertex="1">
          <mxGeometry x="510.08" y="710" width="265" height="80" as="geometry" />
        </mxCell>
        <mxCell id="C2zBSRiGSzw0xKoJz0ad-12" style="edgeStyle=orthogonalEdgeStyle;rounded=0;orthogonalLoop=1;jettySize=auto;html=1;entryX=-0.002;entryY=0.644;entryDx=0;entryDy=0;entryPerimeter=0;endArrow=oval;endFill=1;dashed=1;dashPattern=1 2;" parent="WIyWlLk6GJQsqaUBKTNV-1" source="lytWnD0UrwX1Dr-QNOHe-1" target="IUOXqDqNGWJRMbw2lu2S-16" edge="1">
          <mxGeometry relative="1" as="geometry">
            <Array as="points">
              <mxPoint x="40.08" y="811" />
              <mxPoint x="40.08" y="751" />
            </Array>
          </mxGeometry>
        </mxCell>
        <mxCell id="C2zBSRiGSzw0xKoJz0ad-13" style="edgeStyle=orthogonalEdgeStyle;rounded=0;orthogonalLoop=1;jettySize=auto;html=1;entryX=-0.006;entryY=0.825;entryDx=0;entryDy=0;entryPerimeter=0;endArrow=oval;endFill=1;dashed=1;dashPattern=1 2;" parent="WIyWlLk6GJQsqaUBKTNV-1" source="lytWnD0UrwX1Dr-QNOHe-12" target="IUOXqDqNGWJRMbw2lu2S-16" edge="1">
          <mxGeometry relative="1" as="geometry">
            <Array as="points">
              <mxPoint x="20.08" y="865" />
              <mxPoint x="20.08" y="766" />
            </Array>
          </mxGeometry>
        </mxCell>
        <mxCell id="C2zBSRiGSzw0xKoJz0ad-14" style="edgeStyle=orthogonalEdgeStyle;rounded=0;orthogonalLoop=1;jettySize=auto;html=1;entryX=-0.001;entryY=0.585;entryDx=0;entryDy=0;entryPerimeter=0;endArrow=oval;endFill=1;dashed=1;dashPattern=1 2;" parent="WIyWlLk6GJQsqaUBKTNV-1" source="llq4M6hsSdFKrIHtVXSO-14" target="IUOXqDqNGWJRMbw2lu2S-17" edge="1">
          <mxGeometry relative="1" as="geometry">
            <Array as="points">
              <mxPoint x="268.08000000000004" y="925" />
              <mxPoint x="268.08000000000004" y="863" />
            </Array>
          </mxGeometry>
        </mxCell>
        <mxCell id="C2zBSRiGSzw0xKoJz0ad-16" style="edgeStyle=orthogonalEdgeStyle;rounded=0;orthogonalLoop=1;jettySize=auto;html=1;entryX=-0.009;entryY=0.744;entryDx=0;entryDy=0;entryPerimeter=0;endArrow=oval;endFill=1;dashed=1;dashPattern=1 2;" parent="WIyWlLk6GJQsqaUBKTNV-1" source="llq4M6hsSdFKrIHtVXSO-6" target="IUOXqDqNGWJRMbw2lu2S-17" edge="1">
          <mxGeometry relative="1" as="geometry">
            <Array as="points">
              <mxPoint x="240.07999999999998" y="970" />
              <mxPoint x="240.07999999999998" y="877" />
            </Array>
          </mxGeometry>
        </mxCell>
        <mxCell id="C2zBSRiGSzw0xKoJz0ad-19" style="edgeStyle=orthogonalEdgeStyle;rounded=0;orthogonalLoop=1;jettySize=auto;html=1;entryX=-0.009;entryY=0.672;entryDx=0;entryDy=0;entryPerimeter=0;endArrow=oval;endFill=1;dashed=1;dashPattern=1 2;" parent="WIyWlLk6GJQsqaUBKTNV-1" source="IUOXqDqNGWJRMbw2lu2S-82" target="IUOXqDqNGWJRMbw2lu2S-18" edge="1">
          <mxGeometry relative="1" as="geometry">
            <Array as="points">
              <mxPoint x="500.08000000000004" y="820" />
              <mxPoint x="500.08000000000004" y="764" />
            </Array>
          </mxGeometry>
        </mxCell>
        <mxCell id="C2zBSRiGSzw0xKoJz0ad-21" style="edgeStyle=orthogonalEdgeStyle;rounded=0;orthogonalLoop=1;jettySize=auto;html=1;entryX=-0.007;entryY=0.828;entryDx=0;entryDy=0;entryPerimeter=0;endArrow=oval;endFill=1;dashed=1;dashPattern=1 2;" parent="WIyWlLk6GJQsqaUBKTNV-1" source="llq4M6hsSdFKrIHtVXSO-1" target="IUOXqDqNGWJRMbw2lu2S-18" edge="1">
          <mxGeometry relative="1" as="geometry">
            <Array as="points">
              <mxPoint x="480.08000000000004" y="865" />
              <mxPoint x="480.08000000000004" y="776" />
            </Array>
          </mxGeometry>
        </mxCell>
        <mxCell id="C2zBSRiGSzw0xKoJz0ad-22" value="&lt;span style=&quot;font-size: 10px;&quot;&gt;&lt;b&gt;név := s, tápMennyi := n&lt;/b&gt;&lt;/span&gt;" style="shape=note;whiteSpace=wrap;html=1;backgroundOutline=1;darkOpacity=0.05;fillColor=#e8c987;strokeColor=#000000;size=14;align=left;fillStyle=auto;gradientColor=#e8ebbc;" parent="WIyWlLk6GJQsqaUBKTNV-1" vertex="1">
          <mxGeometry x="45.37" y="540" width="131.42" height="30" as="geometry" />
        </mxCell>
        <mxCell id="C2zBSRiGSzw0xKoJz0ad-23" style="edgeStyle=orthogonalEdgeStyle;rounded=0;orthogonalLoop=1;jettySize=auto;html=1;entryX=0.003;entryY=0.566;entryDx=0;entryDy=0;entryPerimeter=0;endArrow=oval;endFill=1;dashed=1;dashPattern=1 2;" parent="WIyWlLk6GJQsqaUBKTNV-1" source="C2zBSRiGSzw0xKoJz0ad-22" target="IUOXqDqNGWJRMbw2lu2S-3" edge="1">
          <mxGeometry relative="1" as="geometry">
            <Array as="points">
              <mxPoint x="190" y="555" />
              <mxPoint x="190" y="566" />
              <mxPoint x="202" y="566" />
            </Array>
          </mxGeometry>
        </mxCell>
        <mxCell id="f-o2S6zpHyyPMkFLfMiQ-0" value="Osztály Diagram" style="text;html=1;align=center;verticalAlign=middle;rounded=0;fontStyle=1;fontSize=25;labelBackgroundColor=#294b1b;textShadow=1;fontColor=#ffea00;labelBorderColor=#ffae00;whiteSpace=wrap;spacingBottom=0;" parent="WIyWlLk6GJQsqaUBKTNV-1" vertex="1">
          <mxGeometry x="51.63" y="120" width="230" height="30" as="geometry" />
        </mxCell>
        <mxCell id="f-o2S6zpHyyPMkFLfMiQ-2" value="&lt;font style=&quot;font-size: 10px;&quot;&gt;&lt;b&gt;return&lt;/b&gt;&lt;b&gt;&amp;nbsp;&lt;/b&gt;&lt;span style=&quot;font-size: 12px;&quot;&gt;tápMennyi&lt;/span&gt;&lt;/font&gt;" style="shape=note;whiteSpace=wrap;html=1;backgroundOutline=1;darkOpacity=0.05;fillColor=#e8c987;strokeColor=#000000;size=14;align=left;fillStyle=auto;gradientColor=#e8ebbc;" parent="WIyWlLk6GJQsqaUBKTNV-1" vertex="1">
          <mxGeometry x="41.08" y="610" width="110" height="30" as="geometry" />
        </mxCell>
        <mxCell id="f-o2S6zpHyyPMkFLfMiQ-3" style="edgeStyle=orthogonalEdgeStyle;rounded=0;orthogonalLoop=1;jettySize=auto;html=1;entryX=0.001;entryY=0.837;entryDx=0;entryDy=0;entryPerimeter=0;endArrow=oval;endFill=1;dashed=1;dashPattern=1 2;" parent="WIyWlLk6GJQsqaUBKTNV-1" source="f-o2S6zpHyyPMkFLfMiQ-2" target="IUOXqDqNGWJRMbw2lu2S-3" edge="1">
          <mxGeometry relative="1" as="geometry" />
        </mxCell>
        <mxCell id="f-o2S6zpHyyPMkFLfMiQ-4" value="&lt;span style=&quot;font-size: 10px;&quot;&gt;&lt;b&gt;tápMennyi := tápMennyi + n&lt;/b&gt;&lt;/span&gt;" style="shape=note;whiteSpace=wrap;html=1;backgroundOutline=1;darkOpacity=0.05;fillColor=#e8c987;strokeColor=#000000;size=14;align=left;fillStyle=auto;gradientColor=#e8ebbc;" parent="WIyWlLk6GJQsqaUBKTNV-1" vertex="1">
          <mxGeometry x="41.08" y="650" width="110" height="30" as="geometry" />
        </mxCell>
        <mxCell id="f-o2S6zpHyyPMkFLfMiQ-5" style="edgeStyle=orthogonalEdgeStyle;rounded=0;orthogonalLoop=1;jettySize=auto;html=1;entryX=-0.001;entryY=0.914;entryDx=0;entryDy=0;entryPerimeter=0;dashed=1;dashPattern=1 2;endArrow=oval;endFill=1;" parent="WIyWlLk6GJQsqaUBKTNV-1" source="f-o2S6zpHyyPMkFLfMiQ-4" target="IUOXqDqNGWJRMbw2lu2S-3" edge="1">
          <mxGeometry relative="1" as="geometry">
            <Array as="points">
              <mxPoint x="190" y="665" />
              <mxPoint x="190" y="625" />
            </Array>
          </mxGeometry>
        </mxCell>
        <mxCell id="_8ZKdxSywCEYh7l1Drr5-3" style="edgeStyle=orthogonalEdgeStyle;rounded=0;orthogonalLoop=1;jettySize=auto;html=1;endArrow=oval;endFill=1;dashed=1;dashPattern=1 2;" parent="WIyWlLk6GJQsqaUBKTNV-1" source="IUOXqDqNGWJRMbw2lu2S-40" edge="1">
          <mxGeometry relative="1" as="geometry">
            <mxPoint x="360" y="340" as="targetPoint" />
            <Array as="points">
              <mxPoint x="443" y="340" />
              <mxPoint x="443" y="341" />
              <mxPoint x="360" y="341" />
            </Array>
          </mxGeometry>
        </mxCell>
      </root>
    </mxGraphModel>
  </diagram>
</mxfile>
